<svg xmlns="http://www.w3.org/2000/svg" viewBox="0 0 64 64"><defs><radialGradient id="rg" cx=".5" cy=".4" r=".75"><stop offset="0" stop-color="#98a4b1"/><stop offset="1" stop-color="#120d1e"/></radialGradient><linearGradient id="rr" x1="0" y1="0" x2="1" y2="1"><stop offset="0" stop-color="#f4f8fc"/><stop offset=".5" stop-color="#adb6c0"/><stop offset="1" stop-color="#8a97a6"/></linearGradient><clipPath id="cc"><circle cx="32" cy="32" r="25.5"/></clipPath></defs><circle cx="32" cy="32" r="30.5" fill="url(#rr)"/><circle cx="32" cy="32" r="26.5" fill="#fff" opacity=".35"/><circle cx="32" cy="32" r="25.5" fill="url(#rg)"/><g clip-path="url(#cc)"><defs><linearGradient id="g317" x1="0" y1="0" x2="0" y2="1"><stop offset="0" stop-color="#c3586d"/><stop offset=".5" stop-color="#8a3a4a"/><stop offset="1" stop-color="#4d2029"/></linearGradient></defs><path d="M5 66Q8 43 32 43Q56 43 59 66Z" fill="url(#g317)" stroke="#100709" stroke-width="2" stroke-linejoin="round" stroke-linecap="round"/><defs><linearGradient id="g318" x1="0" y1="0" x2="0" y2="1"><stop offset="0" stop-color="#ffffff"/><stop offset=".5" stop-color="#f4f6fa"/><stop offset="1" stop-color="#b8c5df"/></linearGradient></defs><path d="M24 43L32 55L40 43Z" fill="url(#g318)" stroke="#7d94c4" stroke-width="1.6" stroke-linejoin="round" stroke-linecap="round"/><defs><linearGradient id="g319" x1="0" y1="0" x2="0" y2="1"><stop offset="0" stop-color="#e8ba95"/><stop offset=".5" stop-color="#d28d54"/><stop offset="1" stop-color="#a4622b"/></linearGradient></defs><rect x="27" y="35" width="10" height="11" rx="3" fill="url(#g319)" stroke="#5f3919" stroke-width="1.6" stroke-linejoin="round" stroke-linecap="round"/><rect x="29.6" y="36.6" width="4.8" height="3.3" rx="2" fill="#fff" opacity=".24"/><defs><radialGradient id="g320" cx=".35" cy=".28" r=".85"><stop offset="0" stop-color="#eecdb2"/><stop offset=".55" stop-color="#d9a070"/><stop offset="1" stop-color="#bf7333"/></radialGradient></defs><circle cx="18.5" cy="30" r="3" fill="url(#g320)" stroke="#7b4a21" stroke-width="1.6" stroke-linejoin="round" stroke-linecap="round"/><defs><radialGradient id="g321" cx=".35" cy=".28" r=".85"><stop offset="0" stop-color="#eecdb2"/><stop offset=".55" stop-color="#d9a070"/><stop offset="1" stop-color="#bf7333"/></radialGradient></defs><circle cx="45.5" cy="30" r="3" fill="url(#g321)" stroke="#7b4a21" stroke-width="1.6" stroke-linejoin="round" stroke-linecap="round"/><defs><radialGradient id="g322" cx=".35" cy=".28" r=".85"><stop offset="0" stop-color="#eecdb2"/><stop offset=".55" stop-color="#d9a070"/><stop offset="1" stop-color="#bf7333"/></radialGradient></defs><circle cx="32" cy="28" r="13" fill="url(#g322)" stroke="#7b4a21" stroke-width="2" stroke-linejoin="round" stroke-linecap="round"/><ellipse cx="27.8" cy="22.8" rx="3.9" ry="2.6" fill="#fff" opacity=".4"/><defs><linearGradient id="g323" x1="0" y1="0" x2="0" y2="1"><stop offset="0" stop-color="#e3c8a2"/><stop offset=".5" stop-color="#c8a066"/><stop offset="1" stop-color="#9e7539"/></linearGradient></defs><path d="M18.5 27Q18 11 32 12Q46 11 45.5 27Q40 18 32 19.5Q24 18 18.5 27Z" fill="url(#g323)" stroke="#5f4622" stroke-width="2" stroke-linejoin="round" stroke-linecap="round"/><path d="M24 16.5Q30 13.5 38 16" fill="none" stroke="#fff" stroke-width="1.6" opacity=".35" stroke-linecap="round"/><circle cx="24" cy="33" r="2.8" fill="#ff7a8a" opacity=".35"/><circle cx="40" cy="33" r="2.8" fill="#ff7a8a" opacity=".35"/><ellipse cx="27" cy="29.5" rx="2.4" ry="2.9" fill="#fff"/><circle cx="27" cy="30" r="1.8" fill="#2b2118"/><circle cx="27.7" cy="29.2" r=".7" fill="#fff"/><path d="M24 25.6Q27 24 30 25.6" fill="none" stroke="#c19453" stroke-width="1.3" stroke-linecap="round"/><ellipse cx="37" cy="29.5" rx="2.4" ry="2.9" fill="#fff"/><circle cx="37" cy="30" r="1.8" fill="#2b2118"/><circle cx="37.7" cy="29.2" r=".7" fill="#fff"/><path d="M34 25.6Q37 24 40 25.6" fill="none" stroke="#c19453" stroke-width="1.3" stroke-linecap="round"/><path d="M28.5 35Q32 38.2 35.5 35" fill="none" stroke="#9a3f30" stroke-width="1.6" stroke-linecap="round"/></g><path d="M9 22A25 25 0 0 1 30 7" fill="none" stroke="#fff" stroke-width="2.4" opacity=".55" stroke-linecap="round"/></svg>