<svg xmlns="http://www.w3.org/2000/svg" viewBox="0 0 64 64"><defs><radialGradient id="sh"><stop offset="0" stop-color="#000" stop-opacity=".4"/><stop offset="1" stop-color="#000" stop-opacity="0"/></radialGradient></defs><ellipse cx="32" cy="58" rx="22" ry="4.5" fill="url(#sh)"/><defs><radialGradient id="o107"><stop offset="0" stop-color="#b46bff" stop-opacity="0.7"/><stop offset=".6" stop-color="#b46bff" stop-opacity="0.24499999999999997"/><stop offset="1" stop-color="#b46bff" stop-opacity="0"/></radialGradient></defs><circle cx="32" cy="32" r="31" fill="url(#o107)"/><ellipse cx="32" cy="32" rx="29" ry="10" transform="rotate(-50 32 32)" fill="none" stroke="#b46bff" stroke-width="2" opacity=".75"/><circle cx="32" cy="32" r="29" fill="none" stroke="#b46bff" stroke-width="1.6" stroke-dasharray="3 4" opacity=".9"/><g transform="rotate(40 32 32)"><defs><linearGradient id="b108" x1="0" x2="1"><stop offset="0" stop-color="#7a3fd6"/><stop offset=".42" stop-color="#e3c8ff"/><stop offset=".58" stop-color="#e3c8ff"/><stop offset="1" stop-color="#7a3fd6"/></linearGradient></defs><path d="M32 1.5L38.5 8V38H25.5V8Z" fill="url(#b108)" stroke="#2a1151" stroke-width="2.2" stroke-linejoin="round"/><path d="M32 10V35" stroke="#fff" stroke-opacity=".65" stroke-width="1.7" stroke-linecap="round"/><path d="M33.4 10V35" stroke="#351666" stroke-opacity=".4" stroke-width="1"/><path d="M27.6 9V36" stroke="#fff" stroke-opacity=".35" stroke-width="1" stroke-linecap="round"/><circle cx="30" cy="16" r="1" fill="#fff" opacity=".85"/><circle cx="34" cy="24" r="1.2" fill="#fff" opacity=".85"/><circle cx="29" cy="30" r="0.9" fill="#fff" opacity=".85"/><circle cx="35" cy="12" r="0.8" fill="#fff" opacity=".85"/><circle cx="31" cy="34" r="0.8" fill="#fff" opacity=".85"/><defs><linearGradient id="g109" x1="0" y1="0" x2="0" y2="1"><stop offset="0" stop-color="#b75e24"/><stop offset=".5" stop-color="#6b3a1a"/><stop offset="1" stop-color="#251409"/></linearGradient></defs><rect x="28.5" y="43.5" width="7" height="14" rx="2.2" fill="url(#g109)" stroke="#000000" stroke-width="2.6" stroke-linejoin="round" stroke-linecap="round"/><path d="M28.5 47l7 3" stroke="#040201" stroke-width="1.3"/><path d="M28.5 51l7 3" stroke="#040201" stroke-width="1.3"/><path d="M28.5 55l7 3" stroke="#040201" stroke-width="1.3"/><defs><linearGradient id="g110" x1="0" y1="0" x2="0" y2="1"><stop offset="0" stop-color="#ffffff"/><stop offset=".5" stop-color="#e8d0ff"/><stop offset="1" stop-color="#be79ff"/></linearGradient></defs><rect x="16" y="37.5" width="32" height="6.5" rx="3" fill="url(#g110)" stroke="#9323ff" stroke-width="2.6" stroke-linejoin="round" stroke-linecap="round"/><defs><radialGradient id="g111" cx=".35" cy=".28" r=".85"><stop offset="0" stop-color="#ffffff"/><stop offset=".55" stop-color="#e8d0ff"/><stop offset="1" stop-color="#be79ff"/></radialGradient></defs><circle cx="16.5" cy="40.7" r="3" fill="url(#g111)" stroke="#9323ff" stroke-width="2" stroke-linejoin="round" stroke-linecap="round"/><defs><radialGradient id="g112" cx=".35" cy=".28" r=".85"><stop offset="0" stop-color="#ffffff"/><stop offset=".55" stop-color="#e8d0ff"/><stop offset="1" stop-color="#be79ff"/></radialGradient></defs><circle cx="47.5" cy="40.7" r="3" fill="url(#g112)" stroke="#9323ff" stroke-width="2" stroke-linejoin="round" stroke-linecap="round"/><defs><radialGradient id="g113" cx=".35" cy=".28" r=".85"><stop offset="0" stop-color="#e0c2ff"/><stop offset=".55" stop-color="#b46bff"/><stop offset="1" stop-color="#8814ff"/></radialGradient></defs><circle cx="32" cy="40.7" r="3.2" fill="url(#g113)" stroke="#5d00bd" stroke-width="1.6" stroke-linejoin="round" stroke-linecap="round"/><defs><linearGradient id="g114" x1="0" y1="0" x2="0" y2="1"><stop offset="0" stop-color="#ffe696"/><stop offset=".5" stop-color="#ffd23f"/><stop offset="1" stop-color="#e7b100"/></linearGradient></defs><path d="M24.5 63L25.5 54L29.5 58.5L32 51.5L34.5 58.5L38.5 54L39.5 63Z" fill="url(#g114)" stroke="#916f00" stroke-width="2" stroke-linejoin="round" stroke-linecap="round"/><defs><radialGradient id="g115" cx=".35" cy=".28" r=".85"><stop offset="0" stop-color="#f59589"/><stop offset=".55" stop-color="#e8523f"/><stop offset="1" stop-color="#ba2916"/></radialGradient></defs><circle cx="32" cy="56" r="1.6" fill="url(#g115)" stroke="#6d180d" stroke-width="0" stroke-linejoin="round" stroke-linecap="round"/></g><path d="M12 9Q12 14 17 14Q12 14 12 19Q12 14 7 14Q12 14 12 9Z" fill="#fff" opacity="1"/><path d="M54 45Q54 50 59 50Q54 50 54 55Q54 50 49 50Q54 50 54 45Z" fill="#fff" opacity="1"/><path d="M54 9Q54 12 57 12Q54 12 54 15Q54 12 51 12Q54 12 54 9Z" fill="#b46bff" opacity="1"/><path d="M10 47Q10 50 13 50Q10 50 10 53Q10 50 7 50Q10 50 10 47Z" fill="#b46bff" opacity="1"/></svg>