<svg xmlns="http://www.w3.org/2000/svg" viewBox="0 0 64 64"><defs><radialGradient id="sh"><stop offset="0" stop-color="#000" stop-opacity=".4"/><stop offset="1" stop-color="#000" stop-opacity="0"/></radialGradient></defs><ellipse cx="32" cy="58" rx="22" ry="4.5" fill="url(#sh)"/><defs><radialGradient id="o56"><stop offset="0" stop-color="#4ab3ff" stop-opacity="0.7"/><stop offset=".6" stop-color="#4ab3ff" stop-opacity="0.24499999999999997"/><stop offset="1" stop-color="#4ab3ff" stop-opacity="0"/></radialGradient></defs><circle cx="32" cy="32" r="31" fill="url(#o56)"/><g transform="rotate(40 32 32)"><defs><linearGradient id="b57" x1="0" x2="1"><stop offset="0" stop-color="#4ab3ff"/><stop offset=".42" stop-color="#e8f6ff"/><stop offset=".58" stop-color="#e8f6ff"/><stop offset="1" stop-color="#4ab3ff"/></linearGradient></defs><path d="M32 1.5L38.5 8V38H25.5V8Z" fill="url(#b57)" stroke="#005797" stroke-width="2.2" stroke-linejoin="round"/><path d="M32 10V35" stroke="#fff" stroke-opacity=".65" stroke-width="1.7" stroke-linecap="round"/><path d="M33.4 10V35" stroke="#0066b0" stroke-opacity=".4" stroke-width="1"/><path d="M27.6 9V36" stroke="#fff" stroke-opacity=".35" stroke-width="1" stroke-linecap="round"/><defs><linearGradient id="g58" x1="0" y1="0" x2="0" y2="1"><stop offset="0" stop-color="#b75e24"/><stop offset=".5" stop-color="#6b3a1a"/><stop offset="1" stop-color="#251409"/></linearGradient></defs><rect x="28.5" y="43.5" width="7" height="14" rx="2.2" fill="url(#g58)" stroke="#000000" stroke-width="2.6" stroke-linejoin="round" stroke-linecap="round"/><path d="M28.5 47l7 3" stroke="#040201" stroke-width="1.3"/><path d="M28.5 51l7 3" stroke="#040201" stroke-width="1.3"/><path d="M28.5 55l7 3" stroke="#040201" stroke-width="1.3"/><defs><linearGradient id="g59" x1="0" y1="0" x2="0" y2="1"><stop offset="0" stop-color="#7fa9eb"/><stop offset=".5" stop-color="#3b78d9"/><stop offset="1" stop-color="#1f509f"/></linearGradient></defs><rect x="16" y="37.5" width="32" height="6.5" rx="3" fill="url(#g59)" stroke="#112b56" stroke-width="2.6" stroke-linejoin="round" stroke-linecap="round"/><defs><radialGradient id="g60" cx=".35" cy=".28" r=".85"><stop offset="0" stop-color="#7fa9eb"/><stop offset=".55" stop-color="#3b78d9"/><stop offset="1" stop-color="#1f509f"/></radialGradient></defs><circle cx="16.5" cy="40.7" r="3" fill="url(#g60)" stroke="#112b56" stroke-width="2" stroke-linejoin="round" stroke-linecap="round"/><defs><radialGradient id="g61" cx=".35" cy=".28" r=".85"><stop offset="0" stop-color="#7fa9eb"/><stop offset=".55" stop-color="#3b78d9"/><stop offset="1" stop-color="#1f509f"/></radialGradient></defs><circle cx="47.5" cy="40.7" r="3" fill="url(#g61)" stroke="#112b56" stroke-width="2" stroke-linejoin="round" stroke-linecap="round"/><defs><radialGradient id="g62" cx=".35" cy=".28" r=".85"><stop offset="0" stop-color="#ffefa1"/><stop offset=".55" stop-color="#ffe14a"/><stop offset="1" stop-color="#f2ca00"/></radialGradient></defs><circle cx="32" cy="40.7" r="3.2" fill="url(#g62)" stroke="#9c8200" stroke-width="1.6" stroke-linejoin="round" stroke-linecap="round"/><defs><radialGradient id="g63" cx=".35" cy=".28" r=".85"><stop offset="0" stop-color="#7fa9eb"/><stop offset=".55" stop-color="#3b78d9"/><stop offset="1" stop-color="#1f509f"/></radialGradient></defs><circle cx="32" cy="59.5" r="4" fill="url(#g63)" stroke="#112b56" stroke-width="2.2" stroke-linejoin="round" stroke-linecap="round"/></g><g transform="translate(10 14) scale(0.9)"><defs><linearGradient id="g53" x1="0" y1="0" x2="0" y2="1"><stop offset="0" stop-color="#ffefa1"/><stop offset=".5" stop-color="#ffe14a"/><stop offset="1" stop-color="#f2ca00"/></linearGradient></defs><path d="M2 0L-5 10H-1L-4 19L6 7H1L5 0Z" fill="url(#g53)" stroke="#9c8200" stroke-width="1.5" stroke-linejoin="round" stroke-linecap="round"/></g><g transform="translate(48 40) scale(0.8)"><defs><linearGradient id="g54" x1="0" y1="0" x2="0" y2="1"><stop offset="0" stop-color="#ffefa1"/><stop offset=".5" stop-color="#ffe14a"/><stop offset="1" stop-color="#f2ca00"/></linearGradient></defs><path d="M2 0L-5 10H-1L-4 19L6 7H1L5 0Z" fill="url(#g54)" stroke="#9c8200" stroke-width="1.5" stroke-linejoin="round" stroke-linecap="round"/></g><g transform="translate(44 8) scale(0.55)"><defs><linearGradient id="g55" x1="0" y1="0" x2="0" y2="1"><stop offset="0" stop-color="#ffefa1"/><stop offset=".5" stop-color="#ffe14a"/><stop offset="1" stop-color="#f2ca00"/></linearGradient></defs><path d="M2 0L-5 10H-1L-4 19L6 7H1L5 0Z" fill="url(#g55)" stroke="#9c8200" stroke-width="1.5" stroke-linejoin="round" stroke-linecap="round"/></g></svg>