<svg xmlns="http://www.w3.org/2000/svg" viewBox="0 0 64 64"><defs><radialGradient id="sh"><stop offset="0" stop-color="#000" stop-opacity=".4"/><stop offset="1" stop-color="#000" stop-opacity="0"/></radialGradient></defs><ellipse cx="32" cy="58" rx="22" ry="4.5" fill="url(#sh)"/><defs><radialGradient id="o29"><stop offset="0" stop-color="#ff7a2a" stop-opacity="0.7"/><stop offset=".6" stop-color="#ff7a2a" stop-opacity="0.24499999999999997"/><stop offset="1" stop-color="#ff7a2a" stop-opacity="0"/></radialGradient></defs><circle cx="32" cy="32" r="31" fill="url(#o29)"/><g transform="translate(14 38) scale(1.1)"><defs><linearGradient id="g23" x1="0" y1="0" x2="0" y2="1"><stop offset="0" stop-color="#ffa476"/><stop offset=".5" stop-color="#ff6a1f"/><stop offset="1" stop-color="#c74300"/></linearGradient></defs><path d="M0 0C-9-6-7-15-1-22C0-15 7-13 7-6C9-10 10-13 9-17C16-9 13 0 0 0Z" fill="url(#g23)" stroke="#712600" stroke-width="1.6" stroke-linejoin="round" stroke-linecap="round"/><defs><linearGradient id="g24" x1="0" y1="0" x2="0" y2="1"><stop offset="0" stop-color="#ffe696"/><stop offset=".5" stop-color="#ffd23f"/><stop offset="1" stop-color="#e7b100"/></linearGradient></defs><path d="M0 -1C-4-4-3-9 0-12C1-8 4-7 4-3C3 0 1 0 0 -1Z" fill="url(#g24)" stroke="#916f00" stroke-width="0" stroke-linejoin="round" stroke-linecap="round"/></g><g transform="translate(50 36) scale(0.8)"><defs><linearGradient id="g25" x1="0" y1="0" x2="0" y2="1"><stop offset="0" stop-color="#ffa476"/><stop offset=".5" stop-color="#ff6a1f"/><stop offset="1" stop-color="#c74300"/></linearGradient></defs><path d="M0 0C-9-6-7-15-1-22C0-15 7-13 7-6C9-10 10-13 9-17C16-9 13 0 0 0Z" fill="url(#g25)" stroke="#712600" stroke-width="1.6" stroke-linejoin="round" stroke-linecap="round"/><defs><linearGradient id="g26" x1="0" y1="0" x2="0" y2="1"><stop offset="0" stop-color="#ffe696"/><stop offset=".5" stop-color="#ffd23f"/><stop offset="1" stop-color="#e7b100"/></linearGradient></defs><path d="M0 -1C-4-4-3-9 0-12C1-8 4-7 4-3C3 0 1 0 0 -1Z" fill="url(#g26)" stroke="#916f00" stroke-width="0" stroke-linejoin="round" stroke-linecap="round"/></g><g transform="rotate(40 32 32)"><defs><linearGradient id="b30" x1="0" x2="1"><stop offset="0" stop-color="#ff5a2a"/><stop offset=".42" stop-color="#ffe6a8"/><stop offset=".58" stop-color="#ffe6a8"/><stop offset="1" stop-color="#ff5a2a"/></linearGradient></defs><path d="M32 1.5L38.5 8V38H25.5V8Z" fill="url(#b30)" stroke="#771b00" stroke-width="2.2" stroke-linejoin="round"/><path d="M32 10V35" stroke="#fff" stroke-opacity=".65" stroke-width="1.7" stroke-linecap="round"/><path d="M33.4 10V35" stroke="#902000" stroke-opacity=".4" stroke-width="1"/><path d="M27.6 9V36" stroke="#fff" stroke-opacity=".35" stroke-width="1" stroke-linecap="round"/><defs><linearGradient id="g31" x1="0" y1="0" x2="0" y2="1"><stop offset="0" stop-color="#b75e24"/><stop offset=".5" stop-color="#6b3a1a"/><stop offset="1" stop-color="#251409"/></linearGradient></defs><rect x="28.5" y="43.5" width="7" height="14" rx="2.2" fill="url(#g31)" stroke="#000000" stroke-width="2.6" stroke-linejoin="round" stroke-linecap="round"/><path d="M28.5 47l7 3" stroke="#040201" stroke-width="1.3"/><path d="M28.5 51l7 3" stroke="#040201" stroke-width="1.3"/><path d="M28.5 55l7 3" stroke="#040201" stroke-width="1.3"/><defs><linearGradient id="g32" x1="0" y1="0" x2="0" y2="1"><stop offset="0" stop-color="#ed7b44"/><stop offset=".5" stop-color="#c0501a"/><stop offset="1" stop-color="#743010"/></linearGradient></defs><rect x="16" y="37.5" width="32" height="6.5" rx="3" fill="url(#g32)" stroke="#271005" stroke-width="2.6" stroke-linejoin="round" stroke-linecap="round"/><defs><radialGradient id="g33" cx=".35" cy=".28" r=".85"><stop offset="0" stop-color="#ed7b44"/><stop offset=".55" stop-color="#c0501a"/><stop offset="1" stop-color="#743010"/></radialGradient></defs><circle cx="16.5" cy="40.7" r="3" fill="url(#g33)" stroke="#271005" stroke-width="2" stroke-linejoin="round" stroke-linecap="round"/><defs><radialGradient id="g34" cx=".35" cy=".28" r=".85"><stop offset="0" stop-color="#ed7b44"/><stop offset=".55" stop-color="#c0501a"/><stop offset="1" stop-color="#743010"/></radialGradient></defs><circle cx="47.5" cy="40.7" r="3" fill="url(#g34)" stroke="#271005" stroke-width="2" stroke-linejoin="round" stroke-linecap="round"/><defs><radialGradient id="g35" cx=".35" cy=".28" r=".85"><stop offset="0" stop-color="#ffe696"/><stop offset=".55" stop-color="#ffd23f"/><stop offset="1" stop-color="#e7b100"/></radialGradient></defs><circle cx="32" cy="40.7" r="3.2" fill="url(#g35)" stroke="#916f00" stroke-width="1.6" stroke-linejoin="round" stroke-linecap="round"/><defs><radialGradient id="g36" cx=".35" cy=".28" r=".85"><stop offset="0" stop-color="#ed7b44"/><stop offset=".55" stop-color="#c0501a"/><stop offset="1" stop-color="#743010"/></radialGradient></defs><circle cx="32" cy="59.5" r="4" fill="url(#g36)" stroke="#271005" stroke-width="2.2" stroke-linejoin="round" stroke-linecap="round"/></g><g transform="translate(46 16) scale(0.9)"><defs><linearGradient id="g27" x1="0" y1="0" x2="0" y2="1"><stop offset="0" stop-color="#ffa476"/><stop offset=".5" stop-color="#ff6a1f"/><stop offset="1" stop-color="#c74300"/></linearGradient></defs><path d="M0 0C-9-6-7-15-1-22C0-15 7-13 7-6C9-10 10-13 9-17C16-9 13 0 0 0Z" fill="url(#g27)" stroke="#712600" stroke-width="1.6" stroke-linejoin="round" stroke-linecap="round"/><defs><linearGradient id="g28" x1="0" y1="0" x2="0" y2="1"><stop offset="0" stop-color="#ffe696"/><stop offset=".5" stop-color="#ffd23f"/><stop offset="1" stop-color="#e7b100"/></linearGradient></defs><path d="M0 -1C-4-4-3-9 0-12C1-8 4-7 4-3C3 0 1 0 0 -1Z" fill="url(#g28)" stroke="#916f00" stroke-width="0" stroke-linejoin="round" stroke-linecap="round"/></g></svg>