<svg xmlns="http://www.w3.org/2000/svg" viewBox="0 0 192 32"><g transform="translate(0,0)"><g transform="translate(0,0.0) scale(1)"><ellipse cx="16" cy="30.6" rx="8.5" ry="1.8" fill="#000" opacity=".28"/><path d="M14.6 20L14.6 28.4" fill="none" stroke="#161a21" stroke-width="3.4" stroke-linecap="round"/><ellipse cx="14.6" cy="29.4" rx="2.6" ry="1.5" fill="#2b2118"/><path d="M16.0 12.5L16.0 20.0" fill="none" stroke="#ebaa6a" stroke-width="2.6" stroke-linecap="round"/><path d="M17.4 20L17.4 28.4" fill="none" stroke="#3a4658" stroke-width="3.4" stroke-linecap="round"/><ellipse cx="17.4" cy="29.4" rx="2.6" ry="1.5" fill="#2b2118"/><defs><linearGradient id="g496" x1="0" y1="0" x2="0" y2="1"><stop offset="0" stop-color="#7fa9eb"/><stop offset=".5" stop-color="#3b78d9"/><stop offset="1" stop-color="#1f509f"/></linearGradient></defs><path d="M11 9.5Q16 8.0 21 9.5L22 21.5H10Z" fill="url(#g496)" stroke="#112b56" stroke-width="1.8" stroke-linejoin="round" stroke-linecap="round"/><path d="M16.0 12.5L16.0 20.0" fill="none" stroke="#f2c9a0" stroke-width="2.6" stroke-linecap="round"/><defs><radialGradient id="g497" cx=".35" cy=".28" r=".85"><stop offset="0" stop-color="#fdf4ec"/><stop offset=".55" stop-color="#f2c9a0"/><stop offset="1" stop-color="#e89e54"/></radialGradient></defs><circle cx="16" cy="6.2" r="4.7" fill="url(#g497)" stroke="#c9721c" stroke-width="1.8" stroke-linejoin="round" stroke-linecap="round"/><defs><linearGradient id="g498" x1="0" y1="0" x2="0" y2="1"><stop offset="0" stop-color="#674b32"/><stop offset=".5" stop-color="#2b2118"/><stop offset="1" stop-color="#000000"/></linearGradient></defs><path d="M11.2 6.5Q16 -1.2 20.8 6.5Q16 3.6 11.2 6.5Z" fill="url(#g498)" stroke="#000000" stroke-width="1.4" stroke-linejoin="round" stroke-linecap="round"/><circle cx="18.2" cy="6.6" r=".8" fill="#2b2118"/></g></g><g transform="translate(32,0)"><g transform="translate(0,0.0) scale(1)"><ellipse cx="16" cy="30.6" rx="8.5" ry="1.8" fill="#000" opacity=".28"/><path d="M14.6 20L10.3 28.4" fill="none" stroke="#161a21" stroke-width="3.4" stroke-linecap="round"/><ellipse cx="10.3" cy="29.4" rx="2.6" ry="1.5" fill="#2b2118"/><path d="M19.5 12.5L19.9 21.2" fill="none" stroke="#ebaa6a" stroke-width="2.6" stroke-linecap="round"/><path d="M17.4 20L21.7 28.4" fill="none" stroke="#3a4658" stroke-width="3.4" stroke-linecap="round"/><ellipse cx="21.7" cy="29.4" rx="2.6" ry="1.5" fill="#2b2118"/><defs><linearGradient id="g499" x1="0" y1="0" x2="0" y2="1"><stop offset="0" stop-color="#7fa9eb"/><stop offset=".5" stop-color="#3b78d9"/><stop offset="1" stop-color="#1f509f"/></linearGradient></defs><path d="M11 10.7Q16 9.2 21 10.7L22 22.7H10Z" fill="url(#g499)" stroke="#112b56" stroke-width="1.8" stroke-linejoin="round" stroke-linecap="round"/><path d="M12.5 12.5L12.1 21.2" fill="none" stroke="#f2c9a0" stroke-width="2.6" stroke-linecap="round"/><defs><radialGradient id="g500" cx=".35" cy=".28" r=".85"><stop offset="0" stop-color="#fdf4ec"/><stop offset=".55" stop-color="#f2c9a0"/><stop offset="1" stop-color="#e89e54"/></radialGradient></defs><circle cx="16" cy="7.412435565298214" r="4.7" fill="url(#g500)" stroke="#c9721c" stroke-width="1.8" stroke-linejoin="round" stroke-linecap="round"/><defs><linearGradient id="g501" x1="0" y1="0" x2="0" y2="1"><stop offset="0" stop-color="#674b32"/><stop offset=".5" stop-color="#2b2118"/><stop offset="1" stop-color="#000000"/></linearGradient></defs><path d="M11.2 7.7Q16 0.0 20.8 7.7Q16 4.8 11.2 7.7Z" fill="url(#g501)" stroke="#000000" stroke-width="1.4" stroke-linejoin="round" stroke-linecap="round"/><circle cx="18.2" cy="7.8" r=".8" fill="#2b2118"/></g></g><g transform="translate(64,0)"><g transform="translate(0,0.0) scale(1)"><ellipse cx="16" cy="30.6" rx="8.5" ry="1.8" fill="#000" opacity=".28"/><path d="M14.6 20L10.3 28.4" fill="none" stroke="#161a21" stroke-width="3.4" stroke-linecap="round"/><ellipse cx="10.3" cy="29.4" rx="2.6" ry="1.5" fill="#2b2118"/><path d="M19.5 12.5L19.9 21.2" fill="none" stroke="#ebaa6a" stroke-width="2.6" stroke-linecap="round"/><path d="M17.4 20L21.7 28.4" fill="none" stroke="#3a4658" stroke-width="3.4" stroke-linecap="round"/><ellipse cx="21.7" cy="29.4" rx="2.6" ry="1.5" fill="#2b2118"/><defs><linearGradient id="g502" x1="0" y1="0" x2="0" y2="1"><stop offset="0" stop-color="#7fa9eb"/><stop offset=".5" stop-color="#3b78d9"/><stop offset="1" stop-color="#1f509f"/></linearGradient></defs><path d="M11 10.7Q16 9.2 21 10.7L22 22.7H10Z" fill="url(#g502)" stroke="#112b56" stroke-width="1.8" stroke-linejoin="round" stroke-linecap="round"/><path d="M12.5 12.5L12.1 21.2" fill="none" stroke="#f2c9a0" stroke-width="2.6" stroke-linecap="round"/><defs><radialGradient id="g503" cx=".35" cy=".28" r=".85"><stop offset="0" stop-color="#fdf4ec"/><stop offset=".55" stop-color="#f2c9a0"/><stop offset="1" stop-color="#e89e54"/></radialGradient></defs><circle cx="16" cy="7.412435565298214" r="4.7" fill="url(#g503)" stroke="#c9721c" stroke-width="1.8" stroke-linejoin="round" stroke-linecap="round"/><defs><linearGradient id="g504" x1="0" y1="0" x2="0" y2="1"><stop offset="0" stop-color="#674b32"/><stop offset=".5" stop-color="#2b2118"/><stop offset="1" stop-color="#000000"/></linearGradient></defs><path d="M11.2 7.7Q16 0.0 20.8 7.7Q16 4.8 11.2 7.7Z" fill="url(#g504)" stroke="#000000" stroke-width="1.4" stroke-linejoin="round" stroke-linecap="round"/><circle cx="18.2" cy="7.8" r=".8" fill="#2b2118"/></g></g><g transform="translate(96,0)"><g transform="translate(0,0.0) scale(1)"><ellipse cx="16" cy="30.6" rx="8.5" ry="1.8" fill="#000" opacity=".28"/><path d="M14.6 20L14.6 28.4" fill="none" stroke="#161a21" stroke-width="3.4" stroke-linecap="round"/><ellipse cx="14.6" cy="29.4" rx="2.6" ry="1.5" fill="#2b2118"/><path d="M16.0 12.5L16.0 20.0" fill="none" stroke="#ebaa6a" stroke-width="2.6" stroke-linecap="round"/><path d="M17.4 20L17.4 28.4" fill="none" stroke="#3a4658" stroke-width="3.4" stroke-linecap="round"/><ellipse cx="17.4" cy="29.4" rx="2.6" ry="1.5" fill="#2b2118"/><defs><linearGradient id="g505" x1="0" y1="0" x2="0" y2="1"><stop offset="0" stop-color="#7fa9eb"/><stop offset=".5" stop-color="#3b78d9"/><stop offset="1" stop-color="#1f509f"/></linearGradient></defs><path d="M11 9.5Q16 8.0 21 9.5L22 21.5H10Z" fill="url(#g505)" stroke="#112b56" stroke-width="1.8" stroke-linejoin="round" stroke-linecap="round"/><path d="M16.0 12.5L16.0 20.0" fill="none" stroke="#f2c9a0" stroke-width="2.6" stroke-linecap="round"/><defs><radialGradient id="g506" cx=".35" cy=".28" r=".85"><stop offset="0" stop-color="#fdf4ec"/><stop offset=".55" stop-color="#f2c9a0"/><stop offset="1" stop-color="#e89e54"/></radialGradient></defs><circle cx="16" cy="6.2" r="4.7" fill="url(#g506)" stroke="#c9721c" stroke-width="1.8" stroke-linejoin="round" stroke-linecap="round"/><defs><linearGradient id="g507" x1="0" y1="0" x2="0" y2="1"><stop offset="0" stop-color="#674b32"/><stop offset=".5" stop-color="#2b2118"/><stop offset="1" stop-color="#000000"/></linearGradient></defs><path d="M11.2 6.5Q16 -1.2 20.8 6.5Q16 3.6 11.2 6.5Z" fill="url(#g507)" stroke="#000000" stroke-width="1.4" stroke-linejoin="round" stroke-linecap="round"/><circle cx="18.2" cy="6.6" r=".8" fill="#2b2118"/></g></g><g transform="translate(128,0)"><g transform="translate(0,0.0) scale(1)"><ellipse cx="16" cy="30.6" rx="8.5" ry="1.8" fill="#000" opacity=".28"/><path d="M14.6 20L18.9 28.4" fill="none" stroke="#161a21" stroke-width="3.4" stroke-linecap="round"/><ellipse cx="18.9" cy="29.4" rx="2.6" ry="1.5" fill="#2b2118"/><path d="M12.5 12.5L12.1 21.2" fill="none" stroke="#ebaa6a" stroke-width="2.6" stroke-linecap="round"/><path d="M17.4 20L13.1 28.4" fill="none" stroke="#3a4658" stroke-width="3.4" stroke-linecap="round"/><ellipse cx="13.1" cy="29.4" rx="2.6" ry="1.5" fill="#2b2118"/><defs><linearGradient id="g508" x1="0" y1="0" x2="0" y2="1"><stop offset="0" stop-color="#7fa9eb"/><stop offset=".5" stop-color="#3b78d9"/><stop offset="1" stop-color="#1f509f"/></linearGradient></defs><path d="M11 10.7Q16 9.2 21 10.7L22 22.7H10Z" fill="url(#g508)" stroke="#112b56" stroke-width="1.8" stroke-linejoin="round" stroke-linecap="round"/><path d="M19.5 12.5L19.9 21.2" fill="none" stroke="#f2c9a0" stroke-width="2.6" stroke-linecap="round"/><defs><radialGradient id="g509" cx=".35" cy=".28" r=".85"><stop offset="0" stop-color="#fdf4ec"/><stop offset=".55" stop-color="#f2c9a0"/><stop offset="1" stop-color="#e89e54"/></radialGradient></defs><circle cx="16" cy="7.412435565298214" r="4.7" fill="url(#g509)" stroke="#c9721c" stroke-width="1.8" stroke-linejoin="round" stroke-linecap="round"/><defs><linearGradient id="g510" x1="0" y1="0" x2="0" y2="1"><stop offset="0" stop-color="#674b32"/><stop offset=".5" stop-color="#2b2118"/><stop offset="1" stop-color="#000000"/></linearGradient></defs><path d="M11.2 7.7Q16 0.0 20.8 7.7Q16 4.8 11.2 7.7Z" fill="url(#g510)" stroke="#000000" stroke-width="1.4" stroke-linejoin="round" stroke-linecap="round"/><circle cx="18.2" cy="7.8" r=".8" fill="#2b2118"/></g></g><g transform="translate(160,0)"><g transform="translate(0,0.0) scale(1)"><ellipse cx="16" cy="30.6" rx="8.5" ry="1.8" fill="#000" opacity=".28"/><path d="M14.6 20L18.9 28.4" fill="none" stroke="#161a21" stroke-width="3.4" stroke-linecap="round"/><ellipse cx="18.9" cy="29.4" rx="2.6" ry="1.5" fill="#2b2118"/><path d="M12.5 12.5L12.1 21.2" fill="none" stroke="#ebaa6a" stroke-width="2.6" stroke-linecap="round"/><path d="M17.4 20L13.1 28.4" fill="none" stroke="#3a4658" stroke-width="3.4" stroke-linecap="round"/><ellipse cx="13.1" cy="29.4" rx="2.6" ry="1.5" fill="#2b2118"/><defs><linearGradient id="g511" x1="0" y1="0" x2="0" y2="1"><stop offset="0" stop-color="#7fa9eb"/><stop offset=".5" stop-color="#3b78d9"/><stop offset="1" stop-color="#1f509f"/></linearGradient></defs><path d="M11 10.7Q16 9.2 21 10.7L22 22.7H10Z" fill="url(#g511)" stroke="#112b56" stroke-width="1.8" stroke-linejoin="round" stroke-linecap="round"/><path d="M19.5 12.5L19.9 21.2" fill="none" stroke="#f2c9a0" stroke-width="2.6" stroke-linecap="round"/><defs><radialGradient id="g512" cx=".35" cy=".28" r=".85"><stop offset="0" stop-color="#fdf4ec"/><stop offset=".55" stop-color="#f2c9a0"/><stop offset="1" stop-color="#e89e54"/></radialGradient></defs><circle cx="16" cy="7.412435565298214" r="4.7" fill="url(#g512)" stroke="#c9721c" stroke-width="1.8" stroke-linejoin="round" stroke-linecap="round"/><defs><linearGradient id="g513" x1="0" y1="0" x2="0" y2="1"><stop offset="0" stop-color="#674b32"/><stop offset=".5" stop-color="#2b2118"/><stop offset="1" stop-color="#000000"/></linearGradient></defs><path d="M11.2 7.7Q16 0.0 20.8 7.7Q16 4.8 11.2 7.7Z" fill="url(#g513)" stroke="#000000" stroke-width="1.4" stroke-linejoin="round" stroke-linecap="round"/><circle cx="18.2" cy="7.8" r=".8" fill="#2b2118"/></g></g></svg>